# xmcd
#
# Track frame offsets:
#	150
#	19475
#	36732
#	61480
#	78818
#	98437
#	115485
#	135916
#	156000
#	174983
#
# Disc length: 2557 seconds
#
# Revision: 1
# Processed by: cddbd v1.5.2PL0 Copyright (c) Steve Scherf et al.
# Submitted via: audiograbber 1.82.02
#
DISCID=7909fb0a
DTITLE=The Ranchhands - Driven
DYEAR=2007
DGENRE=Country
TTITLE0=Back Porch State Of Mind
TTITLE1=Waiting On Forever
TTITLE2=When Everything Changed
TTITLE3=Welcome To The Middle
TTITLE4=Hillbilly Groove On
TTITLE5=Mary's Northway Diner
TTITLE6=Maybe It's Me
TTITLE7=Paradise
TTITLE8=Bigger Man
TTITLE9=When Will Love Find Me
EXTD=
EXTT0=
EXTT1=
EXTT2=
EXTT3=
EXTT4=
EXTT5=
EXTT6=
EXTT7=
EXTT8=
EXTT9=
PLAYORDER=
